<?xml version="1.0" encoding="UTF-8" standalone="no"?>
<!-- Created with Inkscape (http://www.inkscape.org/) -->

<svg
   version="1.1"
   id="svg2"
   xml:space="preserve"
   width="1365.3333"
   height="1365.3333"
   viewBox="0 0 1365.3333 1365.3333"
   sodipodi:docname="deerbot outlines white.svg"
   inkscape:version="1.1.1 (3bf5ae0d25, 2021-09-20)"
   xmlns:inkscape="http://www.inkscape.org/namespaces/inkscape"
   xmlns:sodipodi="http://sodipodi.sourceforge.net/DTD/sodipodi-0.dtd"
   xmlns="http://www.w3.org/2000/svg"
   xmlns:svg="http://www.w3.org/2000/svg"><defs
     id="defs6"><clipPath
       clipPathUnits="userSpaceOnUse"
       id="clipPath16"><path
         d="M 0,1024 H 1024 V 0 H 0 Z"
         id="path14" /></clipPath><clipPath
       clipPathUnits="userSpaceOnUse"
       id="clipPath2364"><path
         d="M 0,1024 H 1024 V 0 H 0 Z"
         id="path2362" /></clipPath><clipPath
       clipPathUnits="userSpaceOnUse"
       id="clipPath4052"><path
         d="M 0,1024 H 1024 V 0 H 0 Z"
         id="path4050" /></clipPath><clipPath
       clipPathUnits="userSpaceOnUse"
       id="clipPath4084"><path
         d="m 176.718,663.877 h 24.208 v -28.602 h -24.208 z"
         id="path4082" /></clipPath><clipPath
       clipPathUnits="userSpaceOnUse"
       id="clipPath4100"><path
         d="m 204.887,611.945 h 24.208 v -28.602 h -24.208 z"
         id="path4098" /></clipPath><clipPath
       clipPathUnits="userSpaceOnUse"
       id="clipPath4116"><path
         d="m 193.713,705.683 h 24.209 V 677.08 h -24.209 z"
         id="path4114" /></clipPath><clipPath
       clipPathUnits="userSpaceOnUse"
       id="clipPath4132"><path
         d="m 219.887,646.868 h 24.208 v -28.602 h -24.208 z"
         id="path4130" /></clipPath><clipPath
       clipPathUnits="userSpaceOnUse"
       id="clipPath4148"><path
         d="m 237.187,603.369 h 20.242 V 582.08 h -20.242 z"
         id="path4146" /></clipPath><clipPath
       clipPathUnits="userSpaceOnUse"
       id="clipPath4164"><path
         d="M 0,1024 H 1024 V 0 H 0 Z"
         id="path4162" /></clipPath><clipPath
       clipPathUnits="userSpaceOnUse"
       id="clipPath4224"><path
         d="M 0,1024 H 1024 V 0 H 0 Z"
         id="path4222" /></clipPath></defs><sodipodi:namedview
     id="namedview4"
     pagecolor="#505050"
     bordercolor="#eeeeee"
     borderopacity="1"
     inkscape:pageshadow="0"
     inkscape:pageopacity="0"
     inkscape:pagecheckerboard="0"
     showgrid="false"
     inkscape:zoom="0.6013184"
     inkscape:cx="523.01743"
     inkscape:cy="468.96952"
     inkscape:window-width="1920"
     inkscape:window-height="1007"
     inkscape:window-x="0"
     inkscape:window-y="0"
     inkscape:window-maximized="1"
     inkscape:current-layer="g8" /><g
     id="g8"
     inkscape:groupmode="layer"
     inkscape:label="cakeeh deerhead logo"
     transform="matrix(1.3333333,0,0,-1.3333333,0,1365.3333)"><g
       id="g4166"
       transform="translate(339.85548,691.52641)"
       style="stroke:#ffffff;stroke-opacity:1"><path
         d="m 0,0 c 0,0 11.46,41.701 147.878,63.701 215.95,34.826 236.082,-181 265.082,-181 20.887,0 115.427,23.86 166.695,37.212 16.373,4.264 28.315,-9.4 29.338,-26.288 9.19,-151.759 -48.033,-303.924 -348.699,-308.747 -56.936,-0.913 -94.066,-246.435 88.078,-246.392"
         style="fill:none;stroke:#ffffff;stroke-width:31;stroke-linecap:round;stroke-linejoin:round;stroke-miterlimit:10;stroke-dasharray:none;stroke-opacity:1"
         id="path4168" /></g><g
       id="g4170"
       transform="translate(641.78518,277.99811)"
       style="stroke:#ffffff;stroke-opacity:1"><path
         d="M 0,0 C -119.934,-4.089 -199.971,22.295 -194.969,22.562"
         style="fill:none;stroke:#ffffff;stroke-width:31;stroke-linecap:round;stroke-linejoin:round;stroke-miterlimit:10;stroke-dasharray:none;stroke-opacity:1"
         id="path4172" /></g><g
       id="g4174"
       transform="translate(139.70468,25.679712)"
       style="stroke:#ffffff;stroke-opacity:1"><path
         d="m 0,0 c 136,0 149.111,45.548 151.695,153.552 1.372,57.351 15.416,187.996 -17.584,288.996"
         style="fill:none;stroke:#ffffff;stroke-width:31;stroke-linecap:round;stroke-linejoin:round;stroke-miterlimit:10;stroke-dasharray:none;stroke-opacity:1"
         id="path4176" /></g><g
       id="g4178"
       transform="translate(552.88678,568.06101)"
       style="stroke:#ffffff;stroke-opacity:1"><path
         d="M 0,0 28.666,-61.333"
         style="fill:none;stroke:#ffffff;stroke-width:39;stroke-linecap:round;stroke-linejoin:round;stroke-miterlimit:10;stroke-dasharray:none;stroke-opacity:1"
         id="path4180" /></g><g
       id="g4182"
       transform="translate(615.81548,607.22751)"
       style="stroke:#ffffff;stroke-opacity:1"><path
         d="M 0,0 29,-68"
         style="fill:none;stroke:#ffffff;stroke-width:39;stroke-linecap:round;stroke-linejoin:round;stroke-miterlimit:10;stroke-dasharray:none;stroke-opacity:1"
         id="path4184" /></g><g
       id="g4186"
       transform="translate(336.81598,691.22751)"
       style="stroke:#ffffff;stroke-opacity:1"><path
         d="m 0,0 c 0,0 -64,131 -174,148 0,0 -52,-103 0,-222 52,-119 111,-149 111,-149"
         style="fill:none;stroke:#ffffff;stroke-width:31;stroke-linecap:round;stroke-linejoin:round;stroke-miterlimit:10;stroke-dasharray:none;stroke-opacity:1"
         id="path4188" /></g><g
       id="g4190"
       transform="translate(940.81548,612.22751)"
       style="fill:#ffffff;fill-opacity:1"><path
         d="m 0,0 -97.5,-31 c 0,0 32.912,-69.715 94.412,-82.715 l 8.191,23.104 z"
         style="fill:#ffffff;fill-opacity:1;fill-rule:nonzero;stroke:none"
         id="path4192" /></g><g
       id="g4194"
       transform="translate(729.83798,410.47461)"
       style="stroke:#ffffff;stroke-opacity:1"><path
         d="M 0,0 C 0,0 93.825,-24.292 193.504,17.021"
         style="fill:none;stroke:#ffffff;stroke-width:31;stroke-linecap:round;stroke-linejoin:round;stroke-miterlimit:10;stroke-dasharray:none;stroke-opacity:1"
         id="path4196" /></g><g
       id="g4198"
       transform="translate(349.55078,942.98581)"
       style="stroke:#ffffff;stroke-opacity:1"><path
         d="M 0,0 C 0,0 -8.069,-215.426 38.773,-279.739"
         style="fill:none;stroke:#ffffff;stroke-width:48;stroke-linecap:round;stroke-linejoin:round;stroke-miterlimit:10;stroke-dasharray:none;stroke-opacity:1"
         id="path4200" /></g><g
       id="g4202"
       transform="translate(354.67968,795.52541)"
       style="stroke:#ffffff;stroke-opacity:1"><path
         d="M 0,0 C 47.771,12.25 56.41,55.561 56.41,55.561"
         style="fill:none;stroke:#ffffff;stroke-width:48;stroke-linecap:round;stroke-linejoin:round;stroke-miterlimit:10;stroke-dasharray:none;stroke-opacity:1"
         id="path4204" /></g><g
       id="g4206"
       transform="translate(471.04548,978.52051)"
       style="stroke:#ffffff;stroke-opacity:1"><path
         d="M 0,0 C 0,0 1.719,-215.226 45.784,-278.586"
         style="fill:none;stroke:#ffffff;stroke-width:48;stroke-linecap:round;stroke-linejoin:round;stroke-miterlimit:10;stroke-dasharray:none;stroke-opacity:1"
         id="path4208" /></g><g
       id="g4210"
       transform="translate(486.77248,826.31981)"
       style="stroke:#ffffff;stroke-opacity:1"><path
         d="M 0,0 C 44.102,3.083 58.075,43.958 58.075,43.958"
         style="fill:none;stroke:#ffffff;stroke-width:48;stroke-linecap:round;stroke-linejoin:round;stroke-miterlimit:10;stroke-dasharray:none;stroke-opacity:1"
         id="path4212" /></g><g
       id="g4214"
       transform="translate(567.21978,764.21921)"
       style="stroke:#ffffff;stroke-opacity:1"><path
         d="m 0,0 c 0,0 34.94,84.464 104.756,96.7 0,0 46.962,-78.544 1.866,-160.985"
         style="fill:none;stroke:#ffffff;stroke-width:31;stroke-linecap:round;stroke-linejoin:round;stroke-miterlimit:10;stroke-dasharray:none;stroke-opacity:1"
         id="path4216" /></g></g></svg>
